<?xml version="1.0" encoding="UTF-8"?>
<!-- Generator: Adobe Illustrator 19.0.0, SVG Export Plug-In . SVG Version: 6.00 Build 0)  -->
<svg version="1.1" id="Layer_1" xmlns="http://www.w3.org/2000/svg" xmlns:xlink="http://www.w3.org/1999/xlink" x="0px" y="0px" viewBox="100 50 400 400" style="enable-background:new 0 0 500 500;" xml:space="preserve">
<style type="text/css">
	.st0{fill:#FFD500;}
	.st1{fill:#005BBB;}
</style>
<g id="XMLID_1_">
	<path id="XMLID_3_" class="st0" d="M119.1,67.5v275.8c0,18.6,10.9,36.4,29.2,44.5L250,432.5l101.7-44.7c18.3-8,29.2-25.8,29.2-44.5   V67.5H119.1z"/>
	<path id="XMLID_4_" class="st1" d="M123,71.5v269.8c0,18.2,10.6,35.7,28.3,43.5l98.6,43.8l98.6-43.8c17.7-7.9,28.3-25.3,28.3-43.5   V71.5H123z"/>
	<path id="XMLID_15_" class="st0" d="M250,91.3c-7.4,8.4-11.9,19.4-11.9,31.4c0.4,26.5,3.7,52.9,4,79.4c0.6,24.7-6.8,47.8-15.8,70.4   c-3,6.2-6.2,12.4-9.5,18.5l-9.5-1.9c-8.6-1.7-14.2-10.1-12.5-18.7c1.5-7.5,8.1-12.7,15.5-12.8l3.5,0.4l-7.7-64.7   c-2.5-28.8-17.4-54.1-39.3-70.6c-3.8-2.8-7.8-5.4-11.9-7.7V345h53.1c4,21.5,15.8,40.3,32.5,53.2c4,2.7,7.3,6.3,9.7,10.5   c2.4-4.2,5.7-7.8,9.7-10.5c16.7-12.9,28.5-31.7,32.5-53.2h53.1V115.1c-4.2,2.3-8.1,4.9-11.9,7.7c-21.9,16.5-36.8,41.7-39.3,70.6   l-7.7,64.7l3.5-0.4c7.4,0,14,5.3,15.5,12.8c1.7,8.6-3.9,16.9-12.5,18.7l-9.5,1.9c-3.2-6.1-6.5-12.2-9.5-18.5   c-9-22.6-16.4-45.8-15.8-70.4c0.3-26.5,3.5-52.9,4-79.4C261.9,110.7,257.4,99.7,250,91.3z M170.7,148.2   c10.3,12.1,17.2,27.1,19.2,43.6l6.4,53.4c-8.1,4-14.3,11.5-16.6,20.5h-9V148.2z M329.3,148.2v117.4h-9c-2.3-9-8.5-16.4-16.6-20.5   l6.4-53.4C312.2,175.2,319.1,160.2,329.3,148.2z M250,255.5c4.3,13.9,10.1,27.2,17.4,39.5c-6.9,2.1-13,6.2-17.4,11.7   c-4.4-5.5-10.5-9.6-17.4-11.7C239.9,282.7,245.7,269.4,250,255.5z M170.7,281.5h9c2.8,11,11.4,19.6,22.3,22.6l7.6,1.7   c-2,7.4-3.2,15.2-3.2,23.3h-35.7V281.5z M320.4,281.5h9v47.6h-35.7c0-8-1.1-15.8-3.2-23.3l7.6-1.7   C309,301.1,317.5,292.4,320.4,281.5L320.4,281.5z M225,309.5c9.6,1.4,17,9.6,17,19.6h-19.8C222.2,322.3,223.2,315.7,225,309.5z    M275,309.5c1.8,6.2,2.8,12.8,2.8,19.6h-19.8C257.9,319.1,265.4,310.9,275,309.5z M224,345h18v33.4C233.3,369.2,227,357.7,224,345z    M257.9,345h18c-2.9,12.8-9.3,24.3-18,33.4V345z"/>
</g>
</svg>