<?xml version="1.0" encoding="UTF-8" standalone="no"?>
<!-- Created with Inkscape (http://www.inkscape.org/) -->

<svg
   xmlns:dc="http://purl.org/dc/elements/1.1/"
   xmlns:cc="http://creativecommons.org/ns#"
   xmlns:rdf="http://www.w3.org/1999/02/22-rdf-syntax-ns#"
   xmlns:svg="http://www.w3.org/2000/svg"
   xmlns="http://www.w3.org/2000/svg"
   xmlns:sodipodi="http://sodipodi.sourceforge.net/DTD/sodipodi-0.dtd"
   xmlns:inkscape="http://www.inkscape.org/namespaces/inkscape"
   width="90"
   height="87"
   viewBox="0 0 23.812499 23.018751"
   version="1.1"
   id="svg16"
   inkscape:version="0.92.3 (2405546, 2018-03-11)"
   sodipodi:docname="sku.svg">
  <defs
     id="defs10" />
  <sodipodi:namedview
     id="base"
     pagecolor="#ffffff"
     bordercolor="#666666"
     borderopacity="1.0"
     inkscape:pageopacity="0.0"
     inkscape:pageshadow="2"
     inkscape:zoom="8.8390805"
     inkscape:cx="4.0289406"
     inkscape:cy="47.404253"
     inkscape:document-units="mm"
     inkscape:current-layer="layer1"
     showgrid="false"
     units="px"
     inkscape:window-width="1920"
     inkscape:window-height="1040"
     inkscape:window-x="0"
     inkscape:window-y="0"
     inkscape:window-maximized="1" />
  <metadata
     id="metadata13">
    <rdf:RDF>
      <cc:Work
         rdf:about="">
        <dc:format>image/svg+xml</dc:format>
        <dc:type
           rdf:resource="http://purl.org/dc/dcmitype/StillImage" />
        <dc:title />
      </cc:Work>
    </rdf:RDF>
  </metadata>
  <g
     inkscape:label="Vrstva 1"
     inkscape:groupmode="layer"
     id="layer1"
     transform="translate(0,-273.98123)">
    <path
       style="fill:#ececec;stroke:#000000;stroke-width:0.18897638;stroke-linecap:butt;stroke-linejoin:miter;stroke-miterlimit:4;stroke-dasharray:none;stroke-opacity:1;fill-opacity:1"
       d="M 44.238281 5.0664062 C 42.371666 5.1054459 40.505287 5.7065766 38.638672 7.6425781 L 41.519531 31.001953 L 37.119141 7.7226562 L 33.519531 7.8828125 L 38.798828 31.162109 L 32.71875 9.9628906 L 30.478516 11.322266 L 30.638672 12.601562 C 23.350252 16.706507 25.639834 22.653098 27.199219 25.242188 C 31.744541 32.788883 35.701199 34.411729 40.798828 40.201172 L 40.798828 42.601562 L 39.439453 44.121094 L 39.599609 48.201172 C 34.024098 48.438526 28.906761 50.233333 24.638672 52.121094 C 24.197003 52.316495 24.343308 53.72095 24.798828 53.560547 C 28.282871 52.333633 37.937412 50.181683 45.039062 49.757812 C 52.140684 50.18173 61.793353 52.333652 65.277344 53.560547 C 65.732852 53.72095 65.879168 52.316495 65.4375 52.121094 C 61.169408 50.233333 56.054026 48.438526 50.478516 48.201172 L 50.638672 44.121094 L 49.279297 42.601562 L 49.279297 40.201172 C 54.376927 34.411729 58.333582 32.788883 62.878906 25.242188 C 64.43829 22.653098 66.725918 16.706507 59.4375 12.601562 L 59.597656 11.322266 L 57.359375 9.9628906 L 51.279297 31.162109 L 56.558594 7.8828125 L 52.958984 7.7226562 L 48.558594 31.001953 L 51.439453 7.6425781 C 49.306178 5.430005 47.172337 4.9614644 45.039062 5.0820312 C 44.772404 5.0669605 44.504941 5.0608293 44.238281 5.0664062 z M 30.953125 14.855469 C 31.371165 14.907314 31.717853 15.201456 31.919922 15.802734 L 38.478516 35.322266 C 33.637733 32.038196 29.342571 26.814392 27.472656 22.423828 C 25.990758 18.944322 29.141618 14.630806 30.953125 14.855469 z M 59.455078 14.855469 C 61.266586 14.630806 64.417446 18.944322 62.935547 22.423828 C 61.065629 26.814392 56.768519 32.038196 51.927734 35.322266 L 58.488281 15.802734 C 58.69035 15.201456 59.037038 14.907314 59.455078 14.855469 z "
       transform="matrix(0.26458333,0,0,0.26458333,0,273.98123)"
       id="path1043" />
    <text
       xml:space="preserve"
       style="font-style:normal;font-weight:normal;font-size:1.41111112px;line-height:1.25;font-family:sans-serif;text-align:center;letter-spacing:0px;word-spacing:0px;text-anchor:middle;fill:#ffffff;fill-opacity:1;stroke:#000000;stroke-width:0.05;stroke-miterlimit:4;stroke-dasharray:none;stroke-opacity:1"
       x="11.861809"
       y="291.2934"
       id="text1074"><tspan
         sodipodi:role="line"
         id="tspan1072"
         x="11.86181"
         y="291.2934"
         style="font-style:normal;font-variant:normal;font-weight:normal;font-stretch:normal;font-size:2.46944451px;font-family:'Arial Black';-inkscape-font-specification:'Arial Black, ';text-align:center;text-anchor:middle;stroke-width:0.05;fill:#ffffff;stroke-miterlimit:4;stroke-dasharray:none;stroke:#000000;stroke-opacity:1"
         transform="translate(0,-0.52916667)">Суперкубок</tspan><tspan
         sodipodi:role="line"
         x="11.861809"
         y="294.38019"
         style="font-style:normal;font-variant:normal;font-weight:normal;font-stretch:normal;font-size:2.46944451px;font-family:'Arial Black';-inkscape-font-specification:'Arial Black, ';text-align:center;text-anchor:middle;stroke-width:0.05;fill:#ffffff;stroke-miterlimit:4;stroke-dasharray:none;stroke:#000000;stroke-opacity:1"
         id="tspan1076"
         transform="translate(0,-0.52916667)">України</tspan></text>
  </g>
</svg>
