<?xml version="1.0" encoding="UTF-8" standalone="no"?>
<!-- Created with Inkscape (http://www.inkscape.org/) -->

<svg
   xmlns:dc="http://purl.org/dc/elements/1.1/"
   xmlns:cc="http://creativecommons.org/ns#"
   xmlns:rdf="http://www.w3.org/1999/02/22-rdf-syntax-ns#"
   xmlns:svg="http://www.w3.org/2000/svg"
   xmlns="http://www.w3.org/2000/svg"
   xmlns:sodipodi="http://sodipodi.sourceforge.net/DTD/sodipodi-0.dtd"
   xmlns:inkscape="http://www.inkscape.org/namespaces/inkscape"
   width="35.965199mm"
   height="80.160172mm"
   viewBox="0 0 35.965199 80.160172"
   version="1.1"
   id="svg8"
   inkscape:version="0.92.4 (5da689c313, 2019-01-14)"
   sodipodi:docname="logo_ba_1.svg">
  <defs
     id="defs2" />
  <sodipodi:namedview
     id="base"
     pagecolor="#ffffff"
     bordercolor="#666666"
     borderopacity="1.0"
     inkscape:pageopacity="0.0"
     inkscape:pageshadow="2"
     inkscape:zoom="1.4"
     inkscape:cx="75.320234"
     inkscape:cy="167.92066"
     inkscape:document-units="mm"
     inkscape:current-layer="layer1"
     showgrid="false"
     fit-margin-top="0"
     fit-margin-left="0"
     fit-margin-right="0"
     fit-margin-bottom="0"
     inkscape:window-width="1920"
     inkscape:window-height="1057"
     inkscape:window-x="-8"
     inkscape:window-y="-8"
     inkscape:window-maximized="1" />
  <metadata
     id="metadata5">
    <rdf:RDF>
      <cc:Work
         rdf:about="">
        <dc:format>image/svg+xml</dc:format>
        <dc:type
           rdf:resource="http://purl.org/dc/dcmitype/StillImage" />
        <dc:title></dc:title>
      </cc:Work>
    </rdf:RDF>
  </metadata>
  <g
     inkscape:label="Vrstva 1"
     inkscape:groupmode="layer"
     id="layer1"
     transform="translate(-130.4997,-36.775989)">
    <path
       style="fill:#000000;stroke-width:0.35277781"
       d="m 146.74589,113.24717 c -3.83635,-11.11696 -7.0652,-22.362375 -11.47318,-39.958681 -1.19083,-4.75368 -2.24088,-8.86156 -2.33344,-9.12862 -0.10938,-0.315561 -0.54583,0.03559 -1.24658,1.002952 -0.59305,0.818684 -1.12598,1.434064 -1.18429,1.367509 -0.0583,-0.06655 0.18267,-2.343508 0.53549,-5.059897 0.35283,-2.716389 0.66109,-5.256389 0.68503,-5.644445 0.0381,-0.617819 0.0919,-0.595885 0.43277,0.176389 0.21408,0.48507 1.15987,2.452183 2.10176,4.371364 0.94188,1.91918 1.6427,3.55923 1.55738,3.644555 -0.0853,0.08532 -0.49983,-0.02934 -0.92112,-0.254807 -0.42129,-0.225468 -0.8224,-0.35353 -0.89135,-0.284581 -0.19891,0.198917 1.38137,7.354555 2.98445,13.513748 1.17938,4.531318 7.20146,25.026194 8.96642,30.515274 0.3568,1.10967 0.4199,0.80597 0.6231,-2.99861 0.39127,-7.325865 0.78262,-40.091301 0.5128,-42.933347 l -0.25792,-2.716682 -1.64722,-0.219489 c -0.90598,-0.120719 -3.42026,-0.524424 -5.58731,-0.897123 -7.96962,-1.370651 -7.56724,-2.079881 1.18444,-2.087678 l 6.0638,-0.0054 0.18404,-1.499305 c 0.10122,-0.824618 0.27532,-3.245556 0.38689,-5.379862 0.27872,-5.33169 0.8302,-9.265679 1.50672,-10.748256 l 0.56866,-1.246189 0.23961,2.293056 c 0.13179,1.26118 0.15663,5.483805 0.0552,9.38361 l -0.1844,7.090555 7.55089,0.195225 c 7.75285,0.200446 9.92654,0.549003 9.16278,1.469277 -0.6105,0.735607 -4.15964,1.249624 -10.37444,1.502517 -3.72836,0.151715 -5.73435,0.374164 -6.02872,0.66854 -0.56602,0.56602 -0.84688,8.037591 -1.09308,29.079166 -0.1033,8.82826 -0.2583,16.832975 -0.34445,17.788255 -0.28147,3.12147 0.41559,1.23421 2.46573,-6.675755 4.43746,-17.120862 5.55861,-21.335597 6.70965,-25.22361 0.66058,-2.23132 1.53418,-5.561994 1.94133,-7.401501 0.40715,-1.839506 0.99448,-3.625444 1.30516,-3.96875 1.06026,-1.171574 3.28982,-0.437458 3.27001,1.076699 -0.013,0.993838 -1.36062,3.642336 -2.66042,5.228573 -0.6769,0.826071 -1.63268,2.569834 -2.12396,3.875028 -2.29151,6.087981 -7.76447,26.837351 -9.85769,37.372966 -0.68767,3.46117 -1.30054,6.34327 -1.36194,6.40467 -0.0614,0.0614 -0.70158,-1.5979 -1.42262,-3.68734 z"
       id="path826"
       inkscape:connector-curvature="0"
       sodipodi:nodetypes="csccccccccccccssccssccccccccssscscsssccccsscc" />
  </g>
</svg>
