<?xml version="1.0" encoding="UTF-8" standalone="no"?>
<!-- Generator: Adobe Illustrator 19.0.0, SVG Export Plug-In . SVG Version: 6.00 Build 0)  -->

<svg
   version="1.1"
   id="Layer_1"
   x="0px"
   y="0px"
   viewBox="0 0 512 512"
   style="enable-background:new 0 0 512 512;"
   xml:space="preserve"
   sodipodi:docname="icon.svg"
   inkscape:version="1.2-dev (047d1ebc, 2021-09-06)"
   xmlns:inkscape="http://www.inkscape.org/namespaces/inkscape"
   xmlns:sodipodi="http://sodipodi.sourceforge.net/DTD/sodipodi-0.dtd"
   xmlns="http://www.w3.org/2000/svg"
   xmlns:svg="http://www.w3.org/2000/svg"><defs
   id="defs944" /><sodipodi:namedview
   id="namedview942"
   pagecolor="#ffffff"
   bordercolor="#cccccc"
   borderopacity="1"
   inkscape:pageshadow="0"
   inkscape:pageopacity="1"
   inkscape:pagecheckerboard="0"
   showgrid="false"
   inkscape:zoom="1.5878906"
   inkscape:cx="255.68512"
   inkscape:cy="155.23739"
   inkscape:window-width="1920"
   inkscape:window-height="1057"
   inkscape:window-x="-8"
   inkscape:window-y="-8"
   inkscape:window-maximized="1"
   inkscape:current-layer="Layer_1" />
<g
   id="g909">
	<path
   style="fill:#999999"
   d="M0,464.442h512v-52.966H0V464.442z"
   id="path885" />
	<path
   style="fill:#ffff00"
   d="M282.483,411.477h-256l10.178-16.967c10.037-16.728,10.037-37.614,0-54.343l-10.178-16.967h256   c24.373,0,44.138,19.765,44.138,44.138C326.621,391.712,306.856,411.477,282.483,411.477"
   id="path887" />
	<path
   style="fill:#ffcc00"
   d="M282.483,376.166H88.276c-4.882,0-8.828-3.955-8.828-8.828c0-4.873,3.946-8.828,8.828-8.828h194.207   c4.882,0,8.828,3.955,8.828,8.828C291.31,372.212,287.364,376.166,282.483,376.166"
   id="path889" />
	<path
   style="fill:#ffff00"
   d="M256,323.201H0l10.178-16.967c10.037-16.728,10.037-37.614,0-54.343L0,234.925h256   c24.373,0,44.138,19.765,44.138,44.138S280.373,323.201,256,323.201"
   id="path891" />
	<path
   style="fill:#ffd42a"
   d="M256,287.891H61.793c-4.882,0-8.828-3.955-8.828-8.828s3.946-8.828,8.828-8.828H256   c4.882,0,8.828,3.955,8.828,8.828S260.882,287.891,256,287.891"
   id="path893" />
	<path
   style="fill:#0066ff"
   d="M282.483,234.925h-256l10.178-16.967c10.037-16.728,10.037-37.614,0-54.343l-10.178-16.967h256   c24.373,0,44.138,19.765,44.138,44.138S306.856,234.925,282.483,234.925"
   id="path895" />
	<path
   style="fill:#0066ff"
   d="M381.015,47.558l91.392,341.071l-85.274,22.846L295.75,70.404L381.015,47.558z"
   id="path897" />
	<path
   style="fill:#003380"
   d="M282.483,199.615H88.276c-4.882,0-8.828-3.955-8.828-8.828c0-4.873,3.946-8.828,8.828-8.828h194.207   c4.882,0,8.828,3.955,8.828,8.828C291.31,195.66,287.364,199.615,282.483,199.615"
   id="path899" />
	<g
   id="g907">
		<path
   style="fill:#003380"
   d="M403.863,132.825l-85.266,22.846l-9.145-34.11l85.274-22.846L403.863,132.825z"
   id="path901" />
		<path
   style="fill:#0044aa"
   d="M458.696,337.468l-85.266,22.846l-9.145-34.11l85.274-22.846L458.696,337.468z"
   id="path903" />
		<path
   style="fill:#003380"
   d="M397.775,289.511c-3.893,0-7.468-2.604-8.519-6.55l-27.41-102.321    c-1.262-4.714,1.536-9.551,6.241-10.814c4.705-1.271,9.551,1.536,10.805,6.241l27.418,102.329    c1.253,4.705-1.536,9.551-6.241,10.805C399.303,289.414,398.535,289.511,397.775,289.511"
   id="path905" />
	</g>
</g>
<g
   id="g911">
</g>
<g
   id="g913">
</g>
<g
   id="g915">
</g>
<g
   id="g917">
</g>
<g
   id="g919">
</g>
<g
   id="g921">
</g>
<g
   id="g923">
</g>
<g
   id="g925">
</g>
<g
   id="g927">
</g>
<g
   id="g929">
</g>
<g
   id="g931">
</g>
<g
   id="g933">
</g>
<g
   id="g935">
</g>
<g
   id="g937">
</g>
<g
   id="g939">
</g>
</svg>
